<mxfile host="app.diagrams.net" modified="2021-01-20T02:49:35.547Z" agent="5.0 (Macintosh; Intel Mac OS X 11_1_0) AppleWebKit/537.36 (KHTML, like Gecko) Chrome/87.0.4280.141 Safari/537.36" etag="vRlgVyXeUtT94bByQmh-" version="14.2.5" type="github">
  <diagram id="4ks3DGEPLyr1VdRXDdb_" name="Page-1">
    <mxGraphModel dx="946" dy="559" grid="1" gridSize="10" guides="1" tooltips="1" connect="1" arrows="1" fold="1" page="1" pageScale="1" pageWidth="850" pageHeight="1100" math="0" shadow="0">
      <root>
        <mxCell id="0" />
        <mxCell id="1" parent="0" />
        <mxCell id="LTRvE4BRYarLr9ZSw9s9-1" value="" style="strokeWidth=1;shadow=0;dashed=0;align=center;html=1;shape=mxgraph.mockup.containers.browserWindow;rSize=0;strokeColor=#666666;strokeColor2=#008cff;strokeColor3=#c4c4c4;mainText=,;recursiveResize=0;" parent="1" vertex="1">
          <mxGeometry x="140" y="32" width="530" height="1348" as="geometry" />
        </mxCell>
        <mxCell id="LTRvE4BRYarLr9ZSw9s9-2" value="Page 1" style="strokeWidth=1;shadow=0;dashed=0;align=center;html=1;shape=mxgraph.mockup.containers.anchor;fontSize=17;fontColor=#666666;align=left;" parent="LTRvE4BRYarLr9ZSw9s9-1" vertex="1">
          <mxGeometry x="60" y="12" width="110" height="26" as="geometry" />
        </mxCell>
        <mxCell id="LTRvE4BRYarLr9ZSw9s9-3" value="https://www.draw.io" style="strokeWidth=1;shadow=0;dashed=0;align=center;html=1;shape=mxgraph.mockup.containers.anchor;rSize=0;fontSize=17;fontColor=#666666;align=left;" parent="LTRvE4BRYarLr9ZSw9s9-1" vertex="1">
          <mxGeometry x="130" y="60" width="250" height="26" as="geometry" />
        </mxCell>
        <mxCell id="LTRvE4BRYarLr9ZSw9s9-5" value="" style="verticalLabelPosition=bottom;shadow=0;dashed=0;align=center;html=1;verticalAlign=top;strokeWidth=1;shape=mxgraph.mockup.misc.shoppingCart;strokeColor=#999999;" parent="LTRvE4BRYarLr9ZSw9s9-1" vertex="1">
          <mxGeometry x="480" y="120" width="40" height="40" as="geometry" />
        </mxCell>
        <mxCell id="LTRvE4BRYarLr9ZSw9s9-6" value="" style="rounded=0;whiteSpace=wrap;html=1;" parent="LTRvE4BRYarLr9ZSw9s9-1" vertex="1">
          <mxGeometry y="170" width="530" height="110" as="geometry" />
        </mxCell>
        <mxCell id="LTRvE4BRYarLr9ZSw9s9-7" value="Logo and Image" style="text;html=1;strokeColor=none;fillColor=none;align=center;verticalAlign=middle;whiteSpace=wrap;rounded=0;" parent="LTRvE4BRYarLr9ZSw9s9-1" vertex="1">
          <mxGeometry x="218" y="210" width="94" height="30" as="geometry" />
        </mxCell>
        <mxCell id="KfPRQVcdiumOj6spdLpO-34" value="" style="shape=image;html=1;verticalAlign=top;verticalLabelPosition=bottom;labelBackgroundColor=#ffffff;imageAspect=0;aspect=fixed;image=https://cdn0.iconfinder.com/data/icons/set-app-incredibles/24/Image-01-128.png" parent="LTRvE4BRYarLr9ZSw9s9-1" vertex="1">
          <mxGeometry x="41" y="338" width="212" height="212" as="geometry" />
        </mxCell>
        <mxCell id="KfPRQVcdiumOj6spdLpO-41" value="Shop" style="text;html=1;strokeColor=none;fillColor=none;align=center;verticalAlign=middle;whiteSpace=wrap;rounded=0;" parent="LTRvE4BRYarLr9ZSw9s9-1" vertex="1">
          <mxGeometry x="14.5" y="130" width="40" height="20" as="geometry" />
        </mxCell>
        <mxCell id="KfPRQVcdiumOj6spdLpO-42" value="About" style="text;html=1;strokeColor=none;fillColor=none;align=center;verticalAlign=middle;whiteSpace=wrap;rounded=0;" parent="LTRvE4BRYarLr9ZSw9s9-1" vertex="1">
          <mxGeometry x="60" y="130" width="40" height="20" as="geometry" />
        </mxCell>
        <mxCell id="KfPRQVcdiumOj6spdLpO-43" value="FAQ" style="text;html=1;strokeColor=none;fillColor=none;align=center;verticalAlign=middle;whiteSpace=wrap;rounded=0;" parent="LTRvE4BRYarLr9ZSw9s9-1" vertex="1">
          <mxGeometry x="110" y="131" width="40" height="20" as="geometry" />
        </mxCell>
        <mxCell id="KfPRQVcdiumOj6spdLpO-44" value="Contact Us" style="text;html=1;strokeColor=none;fillColor=none;align=center;verticalAlign=middle;whiteSpace=wrap;rounded=0;" parent="LTRvE4BRYarLr9ZSw9s9-1" vertex="1">
          <mxGeometry x="158.5" y="131" width="61.5" height="20" as="geometry" />
        </mxCell>
        <mxCell id="KfPRQVcdiumOj6spdLpO-86" value="" style="shape=image;html=1;verticalAlign=top;verticalLabelPosition=bottom;labelBackgroundColor=#ffffff;imageAspect=0;aspect=fixed;image=https://cdn1.iconfinder.com/data/icons/logotypes/32/pinterest-128.png" parent="LTRvE4BRYarLr9ZSw9s9-1" vertex="1">
          <mxGeometry x="371.5" y="1223.75" width="68.5" height="68.5" as="geometry" />
        </mxCell>
        <mxCell id="KfPRQVcdiumOj6spdLpO-85" value="" style="shape=image;html=1;verticalAlign=top;verticalLabelPosition=bottom;labelBackgroundColor=#ffffff;imageAspect=0;aspect=fixed;image=https://cdn4.iconfinder.com/data/icons/social-media-logos-6/512/62-instagram-128.png" parent="LTRvE4BRYarLr9ZSw9s9-1" vertex="1">
          <mxGeometry x="232" y="1227" width="68" height="68" as="geometry" />
        </mxCell>
        <mxCell id="KfPRQVcdiumOj6spdLpO-84" value="" style="shape=image;html=1;verticalAlign=top;verticalLabelPosition=bottom;labelBackgroundColor=#ffffff;imageAspect=0;aspect=fixed;image=https://cdn1.iconfinder.com/data/icons/logotypes/32/facebook-128.png" parent="LTRvE4BRYarLr9ZSw9s9-1" vertex="1">
          <mxGeometry x="100" y="1227" width="62" height="62" as="geometry" />
        </mxCell>
        <mxCell id="KfPRQVcdiumOj6spdLpO-87" value="Copyright 2021" style="text;html=1;strokeColor=none;fillColor=none;align=center;verticalAlign=middle;whiteSpace=wrap;rounded=0;" parent="LTRvE4BRYarLr9ZSw9s9-1" vertex="1">
          <mxGeometry x="174.63" y="1308" width="190.75" height="20" as="geometry" />
        </mxCell>
        <mxCell id="PIoeKrM-DaRCkpb6_OK0-1" value="" style="shape=image;html=1;verticalAlign=top;verticalLabelPosition=bottom;labelBackgroundColor=#ffffff;imageAspect=0;aspect=fixed;image=https://cdn0.iconfinder.com/data/icons/set-app-incredibles/24/Image-01-128.png" vertex="1" parent="LTRvE4BRYarLr9ZSw9s9-1">
          <mxGeometry x="280" y="338" width="212" height="212" as="geometry" />
        </mxCell>
        <mxCell id="PIoeKrM-DaRCkpb6_OK0-4" value="" style="shape=image;html=1;verticalAlign=top;verticalLabelPosition=bottom;labelBackgroundColor=#ffffff;imageAspect=0;aspect=fixed;image=https://cdn0.iconfinder.com/data/icons/set-app-incredibles/24/Image-01-128.png" vertex="1" parent="LTRvE4BRYarLr9ZSw9s9-1">
          <mxGeometry x="39.5" y="618" width="212" height="212" as="geometry" />
        </mxCell>
        <mxCell id="PIoeKrM-DaRCkpb6_OK0-5" value="" style="shape=image;html=1;verticalAlign=top;verticalLabelPosition=bottom;labelBackgroundColor=#ffffff;imageAspect=0;aspect=fixed;image=https://cdn0.iconfinder.com/data/icons/set-app-incredibles/24/Image-01-128.png" vertex="1" parent="LTRvE4BRYarLr9ZSw9s9-1">
          <mxGeometry x="278.5" y="618" width="212" height="212" as="geometry" />
        </mxCell>
        <mxCell id="PIoeKrM-DaRCkpb6_OK0-3" value="" style="shape=image;html=1;verticalAlign=top;verticalLabelPosition=bottom;labelBackgroundColor=#ffffff;imageAspect=0;aspect=fixed;image=https://cdn0.iconfinder.com/data/icons/set-app-incredibles/24/Image-01-128.png" vertex="1" parent="LTRvE4BRYarLr9ZSw9s9-1">
          <mxGeometry x="278.5" y="888" width="212" height="212" as="geometry" />
        </mxCell>
        <mxCell id="PIoeKrM-DaRCkpb6_OK0-2" value="" style="shape=image;html=1;verticalAlign=top;verticalLabelPosition=bottom;labelBackgroundColor=#ffffff;imageAspect=0;aspect=fixed;image=https://cdn0.iconfinder.com/data/icons/set-app-incredibles/24/Image-01-128.png" vertex="1" parent="LTRvE4BRYarLr9ZSw9s9-1">
          <mxGeometry x="39.5" y="888" width="212" height="212" as="geometry" />
        </mxCell>
        <mxCell id="PIoeKrM-DaRCkpb6_OK0-6" value="Plant Type and Cost" style="text;html=1;strokeColor=none;fillColor=none;align=center;verticalAlign=middle;whiteSpace=wrap;rounded=0;" vertex="1" parent="LTRvE4BRYarLr9ZSw9s9-1">
          <mxGeometry x="82" y="550" width="130" height="20" as="geometry" />
        </mxCell>
        <mxCell id="PIoeKrM-DaRCkpb6_OK0-7" value="Plant Type and Cost" style="text;html=1;strokeColor=none;fillColor=none;align=center;verticalAlign=middle;whiteSpace=wrap;rounded=0;" vertex="1" parent="LTRvE4BRYarLr9ZSw9s9-1">
          <mxGeometry x="321" y="550" width="130" height="20" as="geometry" />
        </mxCell>
        <mxCell id="PIoeKrM-DaRCkpb6_OK0-8" value="Plant Type and Cost" style="text;html=1;strokeColor=none;fillColor=none;align=center;verticalAlign=middle;whiteSpace=wrap;rounded=0;" vertex="1" parent="LTRvE4BRYarLr9ZSw9s9-1">
          <mxGeometry x="80.5" y="830" width="130" height="20" as="geometry" />
        </mxCell>
        <mxCell id="PIoeKrM-DaRCkpb6_OK0-9" value="Plant Type and Cost" style="text;html=1;strokeColor=none;fillColor=none;align=center;verticalAlign=middle;whiteSpace=wrap;rounded=0;" vertex="1" parent="LTRvE4BRYarLr9ZSw9s9-1">
          <mxGeometry x="321" y="830" width="130" height="20" as="geometry" />
        </mxCell>
        <mxCell id="PIoeKrM-DaRCkpb6_OK0-10" value="Plant Type and Cost" style="text;html=1;strokeColor=none;fillColor=none;align=center;verticalAlign=middle;whiteSpace=wrap;rounded=0;" vertex="1" parent="LTRvE4BRYarLr9ZSw9s9-1">
          <mxGeometry x="82" y="1100" width="130" height="20" as="geometry" />
        </mxCell>
        <mxCell id="PIoeKrM-DaRCkpb6_OK0-11" value="Plant Type and Cost" style="text;html=1;strokeColor=none;fillColor=none;align=center;verticalAlign=middle;whiteSpace=wrap;rounded=0;" vertex="1" parent="LTRvE4BRYarLr9ZSw9s9-1">
          <mxGeometry x="319.5" y="1100" width="130" height="20" as="geometry" />
        </mxCell>
        <mxCell id="KfPRQVcdiumOj6spdLpO-89" value="" style="aspect=fixed;pointerEvents=1;shadow=0;dashed=0;html=1;strokeColor=none;labelPosition=center;verticalLabelPosition=bottom;verticalAlign=top;align=center;fillColor=#00188D;shape=mxgraph.azure.mobile" parent="1" vertex="1">
          <mxGeometry x="150" y="1430" width="511" height="730" as="geometry" />
        </mxCell>
        <mxCell id="KfPRQVcdiumOj6spdLpO-90" value="" style="shape=image;html=1;verticalAlign=top;verticalLabelPosition=bottom;labelBackgroundColor=#ffffff;imageAspect=0;aspect=fixed;image=https://cdn4.iconfinder.com/data/icons/wirecons-free-vector-icons/32/menu-alt-128.png" parent="1" vertex="1">
          <mxGeometry x="210" y="1510" width="80" height="80" as="geometry" />
        </mxCell>
        <mxCell id="KfPRQVcdiumOj6spdLpO-91" value="" style="verticalLabelPosition=bottom;shadow=0;dashed=0;align=center;html=1;verticalAlign=top;strokeWidth=1;shape=mxgraph.mockup.misc.shoppingCart;strokeColor=#999999;" parent="1" vertex="1">
          <mxGeometry x="542" y="1515" width="60" height="60" as="geometry" />
        </mxCell>
      </root>
    </mxGraphModel>
  </diagram>
</mxfile>
